<?xml version="1.0" encoding="UTF-8" standalone="no"?>
<!-- Created with Inkscape (http://www.inkscape.org/) -->

<svg
   xmlns:dc="http://purl.org/dc/elements/1.1/"
   xmlns:cc="http://creativecommons.org/ns#"
   xmlns:rdf="http://www.w3.org/1999/02/22-rdf-syntax-ns#"
   xmlns:svg="http://www.w3.org/2000/svg"
   xmlns="http://www.w3.org/2000/svg"
   xmlns:sodipodi="http://sodipodi.sourceforge.net/DTD/sodipodi-0.dtd"
   xmlns:inkscape="http://www.inkscape.org/namespaces/inkscape"
   id="svg3112"
   version="1.1"
   inkscape:version="0.48.4 r9939"
   width="1125.0137"
   height="390.96909"
   sodipodi:docname="log1.png">
  <metadata
     id="metadata3118">
    <rdf:RDF>
      <cc:Work
         rdf:about="">
        <dc:format>image/svg+xml</dc:format>
        <dc:type
           rdf:resource="http://purl.org/dc/dcmitype/StillImage" />
        <dc:title></dc:title>
      </cc:Work>
    </rdf:RDF>
  </metadata>
  <defs
     id="defs3116" />
  <sodipodi:namedview
     pagecolor="#ffffff"
     bordercolor="#666666"
     borderopacity="1"
     objecttolerance="10"
     gridtolerance="10"
     guidetolerance="10"
     inkscape:pageopacity="0"
     inkscape:pageshadow="2"
     inkscape:window-width="1680"
     inkscape:window-height="992"
     id="namedview3114"
     showgrid="false"
     fit-margin-top="0"
     fit-margin-left="0"
     fit-margin-right="0"
     fit-margin-bottom="0"
     inkscape:zoom="0.83588451"
     inkscape:cx="684.83852"
     inkscape:cy="116.90186"
     inkscape:window-x="0"
     inkscape:window-y="-4"
     inkscape:window-maximized="1"
     inkscape:current-layer="svg3112" />
  <path
     style="fill:#000000"
     d="m 652.03495,389.71596 c -2.65023,-1.33603 -3.60186,-4.29996 -2.11608,-6.5907 0.75343,-1.16161 1.93041,-1.17474 7.42376,-0.0828 5.81335,1.1555 7.03255,1.10508 11.13164,-0.46038 5.05904,-1.93206 7.56068,-5.40985 7.56068,-10.51088 0,-4.38328 -4.06184,-8.27166 -14.5,-13.88079 -11.03023,-5.9273 -13.79812,-9.67024 -13.21494,-17.87019 0.46634,-6.55716 3.70944,-11.45778 9.49442,-14.34694 3.67997,-1.83786 5.66519,-2.11028 13.22634,-1.81498 10.12805,0.39556 11.91783,1.35902 10.38864,5.59231 -0.6955,1.92537 -1.58242,2.66426 -2.94485,2.45337 -12.21386,-1.89057 -17.53449,-0.86854 -19.967,3.83541 -0.81544,1.57688 -1.48261,3.74181 -1.48261,4.81095 0,3.09043 5.00223,7.62781 12.66164,11.48503 7.4985,3.77618 12.918,8.43455 14.42548,12.39953 1.23778,3.2556 1.15296,11.50702 -0.15373,14.95576 -2.86255,7.55509 -9.91854,11.268 -21.43339,11.2784 -4.46065,0.004 -9.10605,-0.55036 -10.5,-1.25307 z m 340.2592,-0.31363 c -5.3401,-1.96077 -12.82669,-9.16125 -15.26025,-14.67703 -4.5752,-10.36988 -4.60775,-23.92295 -0.0822,-34.23324 2.31483,-5.27377 9.69643,-12.3639 15.19395,-14.59403 5.5438,-2.2489 18.02675,-2.46073 23.85395,-0.40479 9.3866,3.31177 16.0179,11.09835 18.5317,21.76014 3.983,16.89337 -1.3989,32.46971 -13.8867,40.19031 -4.3957,2.71763 -5.7639,3.02549 -14.482,3.25848 -6.78345,0.18129 -10.88045,-0.20271 -13.86845,-1.29984 z m 21.81045,-8.1466 c 6.2159,-3.149 9.2537,-7.11431 11.5796,-15.11529 2.853,-9.81397 -0.1348,-23.39355 -6.4859,-29.4783 -7.8031,-7.47583 -21.55505,-7.26475 -29.26901,0.44925 -9.39834,9.39834 -9.71244,30.92239 -0.58445,40.05038 7.14841,7.14838 15.88056,8.59222 24.75976,4.09396 z m -483.38018,8.10613 c -0.37921,-0.3792 -0.68947,-14.8006 -0.68947,-32.04755 l 0,-31.35808 2.5651,-0.97525 c 2.80065,-1.06481 27.52079,-1.32669 31.23851,-0.33094 1.87667,0.50264 2.24735,1.19513 2,3.73634 l -0.30361,3.11935 -11,0.2466 c -16.58214,0.37175 -15.5,-0.34715 -15.5,10.2972 0,8.7469 0.0737,9.03373 2.5651,9.98095 1.4108,0.53639 7.06432,0.97525 12.56336,0.97525 l 9.99826,0 -0.31336,3.25 -0.31336,3.25 -10,0.24808 c -15.62275,0.38756 -14.5,-0.52241 -14.5,11.75192 0,12.32962 -1.25527,11.37777 15.5,11.7534 l 11,0.2466 0,3 0,3 -17.06053,0.2728 c -9.3833,0.15004 -17.3708,-0.0375 -17.75,-0.41667 z m 53.31053,-31.83708 0,-32.48095 2.63721,-0.66189 c 1.45047,-0.36405 4.25814,-0.26012 6.23927,0.23094 3.78853,0.93907 4.4597,1.88792 14.42493,20.39285 9.38206,17.42202 16.45862,29.5 17.28421,29.5 0.51997,0 1.02986,-10.4488 1.1821,-24.2243 0.25812,-23.35538 0.34217,-24.26414 2.34314,-25.33503 1.14148,-0.6109 3.15851,-0.83889 4.48228,-0.50665 l 2.40686,0.60408 0,32.48095 0,32.48095 -5.34501,0 c -6.49761,0 -6.33034,0.17453 -14.85561,-15.5 -12.60111,-23.16838 -20.22991,-36.5 -20.88651,-36.5 -1.43967,0 -1.91287,7.20483 -1.91287,29.125 l 0,22.875 -4,0 -4,0 0,-32.48095 z m 142.66667,31.81428 c -0.36667,-0.36666 -0.66667,-14.75083 -0.66667,-31.96481 0,-37.19885 -1.46045,-34.00085 15.06894,-32.99692 20.53711,1.24733 31.6398,7.73675 36.48712,21.32639 1.6458,4.61403 1.83738,17.31572 0.34393,22.80201 -2.57015,9.44163 -10.15868,17.05729 -19.83149,19.9024 -5.51037,1.6208 -29.98636,2.34641 -31.40183,0.93093 z m 32.08466,-9.93417 c 7.3724,-3.57655 10.4384,-8.96328 11.04264,-19.40106 1.00557,-17.37064 -6.71172,-26.28831 -23.89256,-27.60894 -12.64241,-0.97177 -12.07108,-2.22995 -11.70279,25.77149 0.25006,19.01289 0.55681,23.08835 1.80138,23.93292 2.69077,1.82596 16.90286,0.14284 22.75133,-2.69441 z m 36.93814,9.95697 c -0.37921,-0.3792 -0.68947,-14.96198 -0.68947,-32.40617 l 0,-31.7167 2.25,-0.60297 c 1.2375,-0.33164 8.57649,-0.60913 16.30887,-0.61664 15.39356,-0.0149 17.89688,0.71527 17.2861,5.04238 -0.34224,2.42465 -0.44327,2.4462 -12.7814,2.72625 -7.07411,0.16056 -13.00281,0.75233 -13.75,1.37244 -1.55151,1.28764 -1.819,15.49619 -0.33595,17.84528 0.72196,1.14356 3.74559,1.61881 12.72429,2 10.31347,0.43785 11.81992,0.72348 12.12027,2.29804 0.73859,3.87205 -1.51089,4.70196 -12.74462,4.70196 -6.97144,0 -11.09407,0.41651 -11.87756,1.2 -1.44433,1.44433 -1.62686,17.57407 -0.22406,19.8 0.73047,1.15909 3.85204,1.61364 13.73469,2 l 12.78937,0.5 0,3 0,3 -17.06053,0.2728 c -9.3833,0.15004 -17.3708,-0.0375 -17.75,-0.41667 z m 79.9772,-0.0228 c -0.36667,-0.36666 -0.66667,-14.75083 -0.66667,-31.96481 0,-29.35718 0.114,-31.35917 1.83833,-32.282 1.01108,-0.54111 2.79126,-0.73464 3.95596,-0.43006 2.08372,0.5449 2.12235,0.99919 2.41167,28.36687 0.16172,15.2972 0.66711,28.1874 1.12308,28.64488 0.45597,0.45749 6.53097,1.05679 13.5,1.33179 l 12.67096,0.5 0.31336,3.25 0.31336,3.25 -17.39669,0 c -9.56819,0 -17.6967,-0.3 -18.06336,-0.66667 z m 56.16203,-13.02982 -0.40121,-13.80351 -12.21374,-18.18781 c -6.71756,-10.0033 -12.21375,-18.39201 -12.21375,-18.64159 0,-0.24958 1.09377,-0.7283 2.4306,-1.06383 4.83349,-1.21312 7.22929,0.93789 16.54115,14.85102 4.98498,7.44821 9.50682,13.54221 10.04854,13.54221 0.54171,0 5.08272,-6.1875 10.09111,-13.75 5.0084,-7.5625 9.29722,-13.9525 9.53072,-14.2 0.63887,-0.67718 7.20045,-0.54076 7.90557,0.16435 0.87129,0.8713 -0.54318,3.27864 -12.46247,21.21033 l -10.58522,15.92467 -0.5,13.57533 -0.5,13.57532 -3.63505,0.30351 -3.63505,0.30351 -0.4012,-13.80351 z m 119.88565,13.07742 c -0.3929,-0.39285 -0.7143,-14.79843 -0.7143,-32.01241 0,-29.92011 0.085,-31.34373 1.9343,-32.33334 2.2552,-1.20696 8.0267,-1.34715 9.7728,-0.23737 0.6639,0.42195 6.1453,9.75256 12.1809,20.73469 13.2694,24.14437 17.1845,30.54073 18.2794,29.86407 0.4579,-0.28303 0.8326,-11.49721 0.8326,-24.9204 0,-23.107 0.1029,-24.4609 1.9345,-25.44113 1.2895,-0.69011 2.7947,-0.70831 4.5141,-0.0546 l 2.5795,0.98074 -0.264,31.7694 -0.2641,31.7694 -5.9922,0 -5.9922,0 -12.1852,-22 c -14.7158,-26.56882 -16.2335,-28.99692 -17.3969,-27.83353 -0.4933,0.49334 -1.0177,11.90771 -1.1652,25.36526 l -0.2683,24.46829 -3.5357,0.29759 c -1.9447,0.16368 -3.8572,-0.0238 -4.25,-0.41666 z M 0.2674758,226.2586 l 0.2674758,-24.75287 170.4999984,0 170.5,0 0,24.5 0,24.5 L 170.76747,250.7586 0,251.01146 0.2674758,226.2586 z M 389.71211,250.34955 c -0.96052,-0.96051 -0.81458,-46.57911 0.15389,-48.1047 0.62797,-0.98921 10.05079,-1.20467 43.73469,-1 l 42.93426,0.26088 0,24.5 0,24.5 -43.07284,0.26049 c -23.69007,0.14327 -43.37757,-0.0442 -43.75,-0.41667 z m 254.98951,-0.0105 c -0.9534,-0.9534 -0.79745,-46.57907 0.16438,-48.09421 0.62797,-0.98921 10.05079,-1.20467 43.73469,-1 l 42.93426,0.26089 0.26747,24.75 0.26747,24.75 -43.3508,0 c -23.84295,0 -43.65081,-0.3 -44.01747,-0.66667 z m 137.78295,-0.60402 c -0.26818,-0.69888 -0.36656,-11.83638 -0.21861,-24.75 l 0.26899,-23.4793 170.75,-0.25287 c 162.10435,-0.24006 170.75795,-0.16411 170.90555,1.5 0.4598,5.18249 -1.4162,13.63184 -4.328,19.49303 -2.5439,5.12064 -12.361,14.86048 -17.8275,17.68731 -7.574,3.91666 -16.9126,7.09984 -26.7932,9.13285 -9.0688,1.86599 -14.7997,1.93968 -150.84831,1.93968 -113.4426,0 -141.51778,-0.25139 -141.90892,-1.27069 z M 0.7044829,150.34193 C 0.3362407,149.97369 0.0349516,138.49611 0.0349516,124.8362 l 0,-24.8362 170.7499984,0.25286 170.75,0.25287 0,25 0,25 -170.08047,0.25286 C 77.910226,150.89767 1.0727251,150.71017 0.7044829,150.34193 z M 389.48901,149.7466 c -0.27024,-0.70423 -0.37046,-12.07152 -0.2227,-25.26064 l 0.26864,-23.98023 43.5,0 43.5,0 0,25 0,25 -43.2773,0.26064 c -34.43711,0.2074 -43.37767,-9e-4 -43.76864,-1.01977 z m 255,0 c -0.27024,-0.70423 -0.37046,-12.07152 -0.2227,-25.26064 l 0.26864,-23.98023 43.76719,-0.26052 43.7672,-0.26053 -0.2672,25.26053 -0.26719,25.26052 -43.2773,0.26064 c -34.43711,0.2074 -43.37767,-9e-4 -43.76864,-1.01977 z m 137.99701,-0.008 c -0.26859,-0.69995 -0.36747,-12.06374 -0.21971,-25.25286 l 0.26864,-23.98001 171,0 171.00005,0 0,25 0,25 -170.78033,0.25287 c -137.50572,0.2036 -170.87544,0.005 -171.26865,-1.01978 z M 0.7044829,50.341928 C 0.3362407,49.973686 0.0349516,38.496107 0.0349516,24.836198 L 0.0349516,0 170.78495,0.252865 l 170.75,0.252865 0,25 0,25 -170.08047,0.252865 C 77.910226,50.89767 1.0727251,50.71017 0.7044829,50.341928 z M 389.48602,49.738824 c -0.26859,-0.699951 -0.36747,-12.063741 -0.21971,-25.252866 l 0.26864,-23.980228 138,0 c 142.34627,0 147.10711,0.11775 162.30569,4.014318 16.30453,4.180107 30.72594,13.004842 36.6452,22.423898 3.43649,5.468331 5.69879,13.384178 5.3567,18.743215 l -0.30759,4.818569 -170.78028,0.252867 c -137.50572,0.203598 -170.87544,0.0049 -171.26865,-1.019773 z m 392.88475,-0.300335 c -1.07301,-2.796219 0.38359,-12.909753 2.60206,-18.066711 2.6765,-6.22169 11.59526,-15.156629 19.06212,-19.0967 9.29694,-4.905754 20.29858,-8.340898 33.5,-10.460013 10.82408,-1.7375 285.57565,-2.293181 286.66305,-0.579772 0.9304,1.465806 1.142,45.812025 0.23,48.18865 -0.5502,1.433821 -16.5491,1.581787 -171.03142,1.581787 -153.81559,0 -170.48301,-0.152736 -171.02581,-1.567241 z"
     id="path3122"
     inkscape:connector-curvature="0" />
</svg>
